<mxfile host="app.diagrams.net" modified="2023-08-09T23:01:47.678Z" agent="Mozilla/5.0 (Windows NT 10.0; Win64; x64) AppleWebKit/537.36 (KHTML, like Gecko) Chrome/115.0.0.0 Safari/537.36" etag="FIDjoPVZdakWo0-xSx5H" version="21.6.2" type="github">
  <diagram name="Page-1" id="eSyP7mGs580qtgh_CbFT">
    <mxGraphModel dx="794" dy="424" grid="1" gridSize="10" guides="1" tooltips="1" connect="1" arrows="1" fold="1" page="1" pageScale="1" pageWidth="827" pageHeight="1169" math="0" shadow="0">
      <root>
        <mxCell id="0" />
        <mxCell id="1" parent="0" />
        <mxCell id="4n-HR1tdPk6i95Xe2s4v-1" value="Resident&lt;br&gt;" style="rounded=0;whiteSpace=wrap;html=1;" parent="1" vertex="1">
          <mxGeometry x="370" y="70" width="120" height="60" as="geometry" />
        </mxCell>
        <mxCell id="QficSFApnH_vFpnvYXZR-1" value="Visit&lt;span style=&quot;white-space: pre;&quot;&gt;&#x9;&lt;/span&gt;&lt;span style=&quot;white-space: pre;&quot;&gt;&#x9;&lt;/span&gt;" style="rounded=0;whiteSpace=wrap;html=1;" parent="1" vertex="1">
          <mxGeometry x="20" y="180" width="120" height="60" as="geometry" />
        </mxCell>
        <mxCell id="ETmMBv_yj4AdGY_3Beam-2" value="" style="edgeStyle=orthogonalEdgeStyle;rounded=0;orthogonalLoop=1;jettySize=auto;html=1;" edge="1" parent="1" source="QficSFApnH_vFpnvYXZR-2" target="4n-HR1tdPk6i95Xe2s4v-1">
          <mxGeometry relative="1" as="geometry" />
        </mxCell>
        <mxCell id="QficSFApnH_vFpnvYXZR-2" value="Discharge&lt;span style=&quot;white-space: pre;&quot;&gt;&#x9;&lt;/span&gt;" style="rounded=0;whiteSpace=wrap;html=1;" parent="1" vertex="1">
          <mxGeometry x="340" y="180" width="120" height="60" as="geometry" />
        </mxCell>
        <mxCell id="QficSFApnH_vFpnvYXZR-3" value="Appoinmtment&lt;span style=&quot;white-space: pre;&quot;&gt;&#x9;&lt;/span&gt;" style="rounded=0;whiteSpace=wrap;html=1;" parent="1" vertex="1">
          <mxGeometry x="190" y="180" width="120" height="60" as="geometry" />
        </mxCell>
        <mxCell id="QficSFApnH_vFpnvYXZR-4" value="Case&lt;span style=&quot;white-space: pre;&quot;&gt;&#x9;&lt;/span&gt;" style="rounded=0;whiteSpace=wrap;html=1;" parent="1" vertex="1">
          <mxGeometry x="510" y="180" width="120" height="60" as="geometry" />
        </mxCell>
        <mxCell id="QficSFApnH_vFpnvYXZR-5" value="" style="rounded=0;whiteSpace=wrap;html=1;" parent="1" vertex="1">
          <mxGeometry x="680" y="180" width="120" height="60" as="geometry" />
        </mxCell>
        <mxCell id="QficSFApnH_vFpnvYXZR-6" value="" style="curved=1;endArrow=classic;html=1;rounded=0;entryX=0;entryY=0.75;entryDx=0;entryDy=0;" parent="1" target="4n-HR1tdPk6i95Xe2s4v-1" edge="1">
          <mxGeometry width="50" height="50" relative="1" as="geometry">
            <mxPoint x="80" y="180" as="sourcePoint" />
            <mxPoint x="130" y="130" as="targetPoint" />
            <Array as="points">
              <mxPoint x="130" y="180" />
              <mxPoint x="80" y="130" />
            </Array>
          </mxGeometry>
        </mxCell>
        <mxCell id="QficSFApnH_vFpnvYXZR-7" value="" style="curved=1;endArrow=classic;html=1;rounded=0;entryX=0.378;entryY=1.044;entryDx=0;entryDy=0;entryPerimeter=0;" parent="1" target="4n-HR1tdPk6i95Xe2s4v-1" edge="1">
          <mxGeometry width="50" height="50" relative="1" as="geometry">
            <mxPoint x="240" y="180" as="sourcePoint" />
            <mxPoint x="290" y="130" as="targetPoint" />
            <Array as="points">
              <mxPoint x="290" y="180" />
              <mxPoint x="240" y="130" />
            </Array>
          </mxGeometry>
        </mxCell>
        <mxCell id="QficSFApnH_vFpnvYXZR-10" value="" style="curved=1;endArrow=classic;html=1;rounded=0;" parent="1" target="4n-HR1tdPk6i95Xe2s4v-1" edge="1">
          <mxGeometry width="50" height="50" relative="1" as="geometry">
            <mxPoint x="545" y="180" as="sourcePoint" />
            <mxPoint x="595" y="130" as="targetPoint" />
            <Array as="points">
              <mxPoint x="595" y="180" />
              <mxPoint x="545" y="130" />
            </Array>
          </mxGeometry>
        </mxCell>
        <mxCell id="QficSFApnH_vFpnvYXZR-11" value="" style="curved=1;endArrow=classic;html=1;rounded=0;entryX=1;entryY=0.75;entryDx=0;entryDy=0;" parent="1" target="4n-HR1tdPk6i95Xe2s4v-1" edge="1">
          <mxGeometry width="50" height="50" relative="1" as="geometry">
            <mxPoint x="715" y="180" as="sourcePoint" />
            <mxPoint x="765" y="130" as="targetPoint" />
            <Array as="points">
              <mxPoint x="765" y="180" />
              <mxPoint x="765" y="140" />
              <mxPoint x="715" y="130" />
            </Array>
          </mxGeometry>
        </mxCell>
      </root>
    </mxGraphModel>
  </diagram>
</mxfile>
